<?xml version="1.0" standalone="no"?>
<!DOCTYPE svg PUBLIC "-//W3C//DTD SVG 20010904//EN"
 "http://www.w3.org/TR/2001/REC-SVG-20010904/DTD/svg10.dtd">
<svg version="1.0" xmlns="http://www.w3.org/2000/svg"
 width="517.000000pt" height="579.000000pt" viewBox="0 0 517.000000 579.000000"
 preserveAspectRatio="xMidYMid meet">

<g transform="translate(0.000000,579.000000) scale(0.100000,-0.100000)"
fill="#00adcc" stroke="none">
<path d="M3440 5765 c-957 -152 -2162 -757 -2869 -1440 -405 -391 -565 -774
-548 -1310 13 -387 98 -729 271 -1090 120 -251 265 -454 471 -660 178 -179
324 -288 604 -453 18 -11 15 -22 -89 -327 -76 -221 -82 -245 -75 -290 9 -66
61 -118 143 -141 73 -22 279 -21 418 1 553 88 1310 385 1934 757 399 239 699
471 978 759 362 374 499 727 478 1237 -19 474 -175 962 -439 1374 -101 158
-153 224 -272 347 -159 164 -327 292 -538 406 -49 26 -91 54 -94 62 -3 7 25
114 62 236 37 122 76 256 87 297 32 121 13 171 -80 217 -54 26 -65 28 -207 30
-88 1 -185 -4 -235 -12z m346 -178 c5 -15 -43 -185 -123 -432 -86 -268 -81
-241 -53 -270 13 -14 83 -54 155 -89 226 -110 364 -205 515 -356 173 -172 295
-348 425 -615 195 -400 275 -757 262 -1174 -8 -255 -35 -375 -122 -552 -55
-113 -102 -180 -220 -317 -232 -270 -580 -544 -1033 -815 -708 -423 -1584
-736 -2095 -749 -90 -2 -107 3 -107 32 0 10 47 150 105 312 64 178 105 304
103 322 -3 26 -15 35 -133 95 -239 122 -414 248 -586 426 -348 357 -585 857
-654 1378 -31 240 -16 556 36 747 31 114 127 300 217 420 300 397 952 870
1651 1195 506 236 1000 393 1384 439 152 19 266 20 273 3z"/>
<path d="M1490 4389 c-64 -12 -96 -27 -170 -74 -202 -130 -395 -398 -513 -715
-97 -260 -115 -449 -56 -576 44 -92 145 -164 231 -164 104 0 235 100 352 268
32 45 62 82 66 82 32 0 23 -278 -14 -422 -63 -248 -222 -458 -385 -508 -76
-24 -112 -25 -155 -5 -42 20 -66 63 -66 119 0 61 28 114 95 181 45 44 55 60
55 88 0 33 -26 67 -61 80 -28 9 -93 -28 -143 -84 -137 -151 -154 -351 -41
-465 156 -155 383 -129 592 69 136 129 226 288 280 494 50 195 41 569 -17 683
-22 44 -68 80 -100 80 -30 0 -77 -50 -135 -145 -117 -191 -232 -325 -292 -340
-40 -10 -82 13 -104 56 -66 131 45 511 238 809 74 113 209 248 290 289 70 35
144 41 180 16 48 -33 53 -126 12 -206 -36 -71 -90 -115 -169 -139 -119 -35
-178 -111 -136 -175 21 -32 63 -33 149 -2 190 69 316 208 348 381 37 207 -125
367 -331 325z"/>
<path d="M3780 4221 c-114 -35 -178 -121 -240 -321 -38 -124 -64 -178 -118
-246 -55 -69 -133 -144 -150 -144 -20 0 -15 22 52 240 63 203 76 282 56 330
-14 34 -55 60 -94 60 -61 0 -86 -29 -130 -151 -9 -25 -23 -54 -30 -64 -13 -18
-14 -17 -30 12 -51 99 -165 96 -265 -7 -44 -45 -61 -50 -61 -17 0 31 -27 67
-50 67 -53 0 -71 -29 -155 -265 -84 -234 -175 -395 -225 -395 -75 0 -55 161
47 366 25 52 43 102 41 115 -5 34 -62 69 -112 69 -23 -1 -75 2 -116 6 -94 8
-140 -4 -217 -55 -113 -77 -213 -236 -255 -406 -26 -104 -19 -172 25 -258 26
-50 41 -66 77 -84 24 -13 58 -23 75 -23 45 0 128 43 176 91 l42 42 49 -56 c56
-64 88 -76 144 -52 33 14 45 14 76 4 48 -16 80 -6 123 37 48 47 86 126 145
300 28 81 60 163 72 183 50 82 166 182 143 124 -20 -52 -103 -303 -109 -330
-6 -25 -3 -36 13 -52 62 -62 148 8 249 204 41 79 100 161 109 151 3 -2 -5 -44
-17 -92 -37 -147 -19 -216 71 -262 34 -18 54 -22 88 -18 54 7 130 48 192 104
26 23 50 42 55 42 4 0 30 -22 58 -48 160 -152 377 -107 573 118 74 86 133 194
133 244 0 29 -5 38 -30 51 -45 23 -73 19 -93 -15 -10 -16 -51 -72 -92 -124
-104 -131 -197 -196 -280 -196 -65 0 -113 38 -129 102 -6 25 -1 31 57 68 71
44 155 128 182 180 56 108 72 243 37 309 -31 57 -96 82 -162 62z m38 -202 c4
-34 -33 -132 -65 -169 -24 -30 -56 -39 -68 -21 -16 26 48 190 82 210 28 16 48
8 51 -20z m-1622 -313 c7 -17 -81 -239 -133 -339 -43 -82 -80 -123 -118 -133
-45 -11 -60 6 -63 70 -7 132 91 330 193 392 45 27 112 32 121 10z"/>
<path d="M2965 3212 c-100 -64 -193 -249 -347 -686 -27 -77 -99 -266 -159
-418 -122 -310 -146 -386 -129 -418 13 -25 54 -36 89 -24 27 10 44 40 165 294
61 130 68 140 151 218 131 124 142 112 60 -67 -47 -105 -93 -241 -102 -307
-13 -94 42 -164 128 -164 28 0 64 7 81 16 41 21 123 98 149 140 23 38 37 43
46 17 37 -104 179 -145 302 -88 73 34 157 123 205 219 22 42 47 81 55 85 25
13 151 34 159 27 3 -4 -38 -136 -91 -294 -53 -158 -97 -298 -97 -312 0 -61 58
-89 108 -54 32 22 51 64 147 329 48 132 89 242 91 244 2 3 17 -7 32 -21 124
-116 269 -80 416 104 125 156 181 300 174 446 -3 71 -9 98 -34 147 -66 133
-169 141 -323 24 -29 -22 -55 -38 -57 -36 -2 2 1 37 7 78 17 118 -16 188 -76
161 -37 -17 -60 -74 -158 -387 l-85 -270 -38 -6 c-22 -4 -60 -10 -85 -13 l-46
-7 -6 73 c-15 193 -133 280 -279 207 -45 -23 -84 -70 -182 -222 -42 -65 -82
-119 -89 -122 -6 -2 -24 -6 -39 -9 -20 -5 -34 -19 -52 -54 -50 -99 -126 -182
-166 -182 -30 0 32 158 115 295 37 63 51 126 37 173 -15 50 -48 92 -73 92 -10
0 -19 3 -19 6 0 4 20 36 44 73 66 100 113 189 148 282 25 69 32 103 35 189 4
95 2 109 -19 149 -29 57 -64 82 -119 88 -32 3 -52 -1 -74 -15z m63 -230 c3
-67 15 -34 -157 -437 -58 -135 -79 -169 -110 -173 -28 -4 -27 11 4 103 40 119
203 528 221 553 25 36 39 21 42 -46z m1391 -431 c21 -14 9 -133 -21 -209 -79
-193 -202 -315 -272 -268 -33 21 -39 56 -21 132 45 193 231 397 314 345z
m-879 -287 c0 -27 -16 -30 -42 -10 -24 18 -22 34 5 38 31 5 37 1 37 -28z m-88
-124 c32 -19 58 -41 58 -48 0 -21 -48 -109 -82 -147 -54 -63 -159 -99 -174
-60 -14 36 109 304 134 293 4 -2 33 -19 64 -38z"/>
<path d="M2150 2890 c-25 -5 -83 -28 -129 -51 -112 -55 -223 -163 -272 -264
-33 -67 -34 -74 -34 -185 0 -114 1 -117 38 -193 29 -59 63 -103 147 -192 112
-118 139 -157 160 -234 24 -88 -13 -176 -91 -217 -43 -22 -110 -18 -150 9 -35
23 -46 49 -48 108 -1 47 -35 79 -83 79 -54 0 -80 -26 -85 -87 -11 -106 51
-209 155 -260 48 -24 70 -28 137 -28 71 0 89 4 147 33 82 40 149 111 178 190
18 47 21 73 18 147 -6 132 -29 175 -175 329 -66 68 -132 148 -148 178 -26 46
-30 63 -30 133 0 100 25 154 106 230 71 65 137 98 210 103 102 7 141 -42 121
-153 -17 -88 -15 -119 8 -140 42 -38 103 13 140 119 76 215 -89 393 -320 346z"/>
</g>
</svg>
